<?xml version="1.0" encoding="UTF-8"?>
<svg width="1446px" height="1446px" viewBox="0 0 1446 1446" version="1.1" xmlns="http://www.w3.org/2000/svg" xmlns:xlink="http://www.w3.org/1999/xlink">
    <!-- Generator: Sketch 48.2 (47327) - http://www.bohemiancoding.com/sketch -->
    <title>noun_Cross_1382924</title>
    <desc>Created with Sketch.</desc>
    <defs></defs>
    <g id="Page-1" stroke="none" stroke-width="1" fill="none" fill-rule="evenodd">
        <g id="noun_Cross_1382924" transform="translate(20.000000, 20.000000)">
            <g id="Group">
                <path d="M1392.1,216.4 C1410.4,234.8 1410.4,264.5 1392.1,282.9 L977.1,697.9 C974.1,700.9 974.2,705.8 977.3,708.6 L979.1,710.3 L1392,1123.2 C1410.3,1141.6 1410.3,1171.3 1392,1189.7 L1189.8,1391.9 C1171.5,1410.2 1141.7,1410.2 1123.3,1391.9 L713.4,982 L708.4,976.9 C705.5,974 700.8,974 697.9,976.9 L283,1391.8 C264.6,1410.1 234.9,1410.1 216.5,1391.8 L14.5,1189.6 C-3.8,1171.2 -3.8,1141.5 14.5,1123.1 L429.4,708.2 C432.3,705.3 432.3,700.6 429.4,697.7 L428.6,696.9 L14.5,282.9 C-3.8,264.5 -3.8,234.8 14.5,216.4 L216.6,14.3 C235,-4.1 264.7,-4.1 283.1,14.3 L698,429.2 C699.4,430.7 701.3,431.4 703.2,431.4 C705.1,431.4 707,430.7 708.4,429.2 L1123.3,14.3 C1141.7,-4.1 1171.4,-4.1 1189.8,14.3 L1392.1,216.4 Z" id="Shape" fill="#020000" fill-rule="nonzero"></path>
                <path d="M979.1,710.2 L1392,1123.1 C1410.3,1141.5 1410.3,1171.2 1392,1189.6 L1189.8,1391.8 C1171.5,1410.1 1141.7,1410.1 1123.3,1391.8 L713.4,981.9 L708.4,976.8 C705.5,973.9 700.8,973.9 697.9,976.8 L283,1391.7 C264.6,1410 234.9,1410 216.5,1391.7 L14.5,1189.6 C-3.8,1171.2 -3.8,1141.5 14.5,1123.1 L429.4,708.2 C432.3,705.3 432.3,700.6 429.4,697.7 L428.6,696.9 L14.5,282.9 C-3.8,264.5 -3.8,234.8 14.5,216.4 L216.6,14.3 C235,-4.1 264.7,-4.1 283.1,14.3 L698,429.2 C699.4,430.7 701.3,431.4 703.2,431.4 C705.1,431.4 707,430.7 708.4,429.2 L1123.3,14.3 C1141.7,-4.1 1171.4,-4.1 1189.8,14.3 L1392,216.4 C1410.3,234.8 1410.3,264.5 1392,282.9 L977,697.9 C974,700.9 974.1,705.8 977.2,708.6 L979.1,710.2 Z" id="Shape" stroke="#000000" stroke-width="40"></path>
            </g>
        </g>
    </g>
</svg>